<?xml version="1.0" encoding="utf-8"?>
<!-- Generator: Adobe Illustrator 16.0.1, SVG Export Plug-In . SVG Version: 6.00 Build 0)  -->
<!DOCTYPE svg PUBLIC "-//W3C//DTD SVG 1.1//EN" "http://www.w3.org/Graphics/SVG/1.1/DTD/svg11.dtd">
<svg version="1.1" id="Layer_1" xmlns="http://www.w3.org/2000/svg" xmlns:xlink="http://www.w3.org/1999/xlink" x="0px" y="0px"
	 width="500px" height="500px" viewBox="0 0 500 500" enable-background="new 0 0 500 500" xml:space="preserve">
<g>
	<linearGradient id="SVGID_1_" gradientUnits="userSpaceOnUse" x1="215.373" y1="2.3965" x2="284.8054" y2="496.4329">
		<stop  offset="0" style="stop-color:#FFFFFF"/>
		<stop  offset="0.1554" style="stop-color:#DEF2FA"/>
		<stop  offset="0.4403" style="stop-color:#A7DCF3"/>
		<stop  offset="0.6863" style="stop-color:#7FCCEE"/>
		<stop  offset="0.881" style="stop-color:#67C2EA"/>
		<stop  offset="1" style="stop-color:#5EBEE9"/>
		<stop  offset="1" style="stop-color:#50A1C6"/>
		<stop  offset="1" style="stop-color:#3F809D"/>
		<stop  offset="1" style="stop-color:#306177"/>
		<stop  offset="1" style="stop-color:#234757"/>
		<stop  offset="1" style="stop-color:#18303B"/>
		<stop  offset="1" style="stop-color:#0F1E25"/>
		<stop  offset="1" style="stop-color:#081114"/>
		<stop  offset="1" style="stop-color:#030709"/>
		<stop  offset="1" style="stop-color:#010202"/>
		<stop  offset="1" style="stop-color:#000000"/>
	</linearGradient>
	<circle fill="url(#SVGID_1_)" cx="250.09" cy="249.416" r="249.415"/>
	<path fill="#FFFFFF" stroke="#FFFFFF" stroke-width="1.124" stroke-miterlimit="10" d="M402.77,447.929
		c2.943-1.799,5.928-3.493,8.509-6.034c4.072-4.01,8.114-8.074,11.93-12.329c4.077-4.548,8.612-8.598,13.11-12.688
		c2.004-2.607,3.959-5.256,5.922-7.911c2.304-3.114,4.604-6.229,7.437-8.81l-6.719,2.128l-9.431,2.45l-7.408,1.569l-7.342,1.283
		l-11.343,1.523l-10.463,0.971l-10.036,0.594l-8.825,0.279l-9.701,0.079l-9.631-0.13l-6.756-0.206l-5.953-0.245l-7.726-0.406
		l-7.097-0.447l-8.107-0.588l-7.366-0.591l-7.887-0.678l-6.59-0.591l-6.888-0.529l-6.698-0.473l-4.291-0.326l-5.459-0.438
		l-5.687-0.489l-5.575-0.505l-3.288-0.309l-6.71-0.659l-7.236-0.75l-4.64-0.497l-6.057-0.672l-5.236-0.597l-6.196-0.725
		l-3.169-0.379l-4.322-0.522l-3.953-0.485l-3.885-0.479l-6.243-0.783l-5.265-0.669l-5.277-0.675l-8.454-1.092l-6.575-0.849
		l-7.518-0.972l-6.224-0.805l-7.076-0.799l-7.272-0.479l-9.003-0.285l-10.103,0.038l-8.921,0.313l-8.603,0.526l-7.05,0.587
		l-4.488,0.44l-7.538,0.854l-8.371,1.106l-9.031,1.369l-8.995,1.542l-6.518,1.223l-5.774,1.157l-6.961,1.483l-0.948,0.217
		c8.428,11.908,17.167,24.494,29.152,33.131l5.645-0.967l13.913-1.999l12.454-1.405l9.81-0.829l7.94-0.478l9.23-0.313l6-0.055
		l5.124,0.055l7.588,0.266l9.199,0.646l8.284,1.038l8.774,1.134l7.066,0.915l6.065,0.784l7.957,1.021l8.792,1.114l7.397,0.92
		l7.508,0.917l8.24,0.975l6.383,0.734l5.443,0.607l8.002,0.857l8.316,0.847l9.635,0.914l8.917,0.774l7.972,0.631l8.027,0.572
		l6.872,0.525l5.63,0.506l8.014,0.695l8.438,0.68l9.148,0.656l7.06,0.437l8.855,0.445l6.659,0.245l7.459,0.18l8.219,0.063
		l8.874-0.11l6.966-0.228l8.953-0.499L402.77,447.929z"/>
	<path fill="#FFFFFF" d="M491.969,265.352l-16.219-3.455l-19.611-2.777l-22.223-2.313l-21.824-0.966l-25.651,0.224l-18.097,0.872
		l-18.621,1.512l-16.423,1.705l-25.838,3.331l-17.938,2.712l-18.007,2.995l-20.64,3.703l-20.546,3.915l-22.794,4.52l-23.073,4.655
		l-18.978,3.848l-18.742,3.812l-18.823,3.725l-21.171,3.998l-22.201,3.915l-20.568,3.312l-15.184,2.215l-17.946,2.333l-18.609,2.047
		l-3.932,0.34c1.191,2.464,1.857,5.249,2.267,8.01c1.723,4.591,3.414,9.193,4.782,13.896c2.211,7.593,5.841,14.143,9.341,21.143
		l5.461-0.659l26.483-3.873l26.431-4.434l31.099-5.785l28.802-5.74l28.469-5.787l23.56-4.755l22.452-4.445l36.661-6.819l29.17-4.808
		l22.337-3.175l26.573-3.058l21.459-1.784l21.477-1.05l18.344-0.222l16.093,0.399l18.695,1.281l14.399,1.659l20.929,3.028
		l12.989,2.756l16.249,4.114c1.735-8.313,3.56-16.573,4.444-25.032c0.809-7.694,1.269-15.406,2.327-23.072L491.969,265.352z"/>
	<polyline fill="#FFFFFF" points="50.955,97.724 52.73,95.569 54.881,92.744 57.166,90.053 60.392,86.017 63.483,82.519 
		66.978,78.482 69.667,75.927 74.64,70.814 78.539,66.778 89.292,57.764 94.616,53.36 97.658,53.768 102.363,54.444 107.051,55.252 
		111.535,56.066 117.412,57.238 123.627,58.584 129.41,59.922 134.517,61.149 140.598,62.64 146.294,64.054 151.263,65.278 
		156.11,66.456 162.871,68.034 166.471,68.875 170.456,69.715 177.05,71.041 181.875,71.925 188.928,73.019 195.106,73.785 
		200.456,74.347 209.278,74.823 214.167,74.762 218.472,74.709 225.35,74.219 232.414,73.288 238.148,72.271 243.45,71.086 
		250.556,69.028 254.06,67.743 258.793,66.007 262.114,64.562 267.494,62.103 272.144,59.636 276.199,57.334 280.299,54.803 
		285.146,51.515 289.431,48.335 293.89,44.677 297.394,41.747 300.459,38.925 305.185,34.101 309.025,30.143 311.971,26.736 
		314.912,23.245 316.988,20.661 319.673,17.06 322.063,13.852 324.196,10.627 329.631,12.29 335.411,14.174 344.146,17.672 
		348.718,19.556 354.497,22.112 364.995,27.394 363.044,31.096 360.244,36.006 356.277,42.463 353.162,47.139 350.063,51.479 
		346.169,56.624 342.185,61.443 338.215,65.945 333.527,70.811 329.382,74.885 324.739,79.058 319.595,83.291 316.735,85.489 
		313.648,87.729 309.424,90.656 304.301,93.92 299.205,96.834 293.227,99.916 285.733,103.34 277.453,106.481 272.325,108.073 
		263.762,110.349 258.159,111.522 251.418,112.652 241.062,113.685 228.817,113.971 220.211,113.658 214.016,113.231 
		207.975,112.623 200.566,111.703 191.418,110.279 184.368,109.057 177.884,107.836 169.44,106.156 161.659,104.564 153.118,102.81 
		142.385,100.688 134.736,99.272 126.69,97.925 119.751,96.907 112.644,96.055 106.136,95.377 100.2,94.98 93.729,94.717 
		87.008,94.698 78.931,94.889 70.469,95.372 63.07,96.009 50.955,97.724 	"/>
	<polygon fill="#FFFFFF" points="1.71,219.859 1.66,220.268 1.506,221.495 1.282,223.412 1.104,225.596 0.924,227.781 
		0.746,229.831 0.567,231.659 0.299,235.314 0.075,241.288 0,245.388 0,248.91 0,253.011 0.148,257.828 2.311,258.137 
		5.218,258.403 10.004,258.839 14.252,259.073 21.901,259.341 28.387,259.341 43.19,259.341 49.229,259.119 53.479,258.839 
		59.114,258.448 63.811,258.092 70.922,257.468 78.168,256.755 85.996,255.863 92.749,254.927 99.592,253.857 106.615,252.787 
		116.41,251.049 121.821,249.979 127.278,248.866 132.288,247.661 138.146,246.324 142.888,245.165 147.226,243.873 154.65,241.688 
		159.75,240.084 163.998,238.702 168.113,237.188 172.183,235.626 177.192,233.576 180.95,231.882 184.796,230.143 189.312,228.093 
		193.07,226.354 196.604,224.66 200.092,223.1 202.866,221.719 207.116,219.859 210.336,218.287 219.952,213.828 238.514,205.314 
		262.174,194.794 293.976,181.465 318.528,171.48 345.635,160.692 365.09,153.783 371.171,151.732 376.629,150.128 382.131,148.434 
		388.796,146.562 393.536,145.313 403.599,142.995 407.983,141.97 413.976,140.9 418.313,140.186 424.575,139.206 429.896,138.582 
		440.766,137.78 445.932,137.78 450.964,137.78 454.52,137.78 461.026,138.115 465.857,138.583 470.89,139.185 474.815,139.836 
		472.566,135.574 469.883,130.291 466.528,124.407 463.845,119.995 460.288,114.178 455.995,107.758 452.707,103.278 
		449.511,98.848 443.405,98.642 438.172,98.642 430.927,99.044 425.2,99.534 420.459,99.935 415.139,100.604 408.877,101.584 
		393.044,104.706 372.38,110.143 351.983,116.695 340.533,120.841 315.487,130.649 279.709,145.314 250.048,158.608 
		177.269,191.957 169.114,195.615 159.824,199.208 147.87,203.229 137.936,206.111 126.504,209.047 111.911,212.184 97.521,214.776 
		77.172,217.698 60.534,219.467 48.345,220.471 34.959,221.032 22.796,221.129 	"/>
</g>
</svg>
